<?xml version="1.0" encoding="utf-8"?>
<!-- Generator: Adobe Illustrator 19.1.0, SVG Export Plug-In . SVG Version: 6.00 Build 0)  -->
<svg version="1.1" id="Слой_1" xmlns="http://www.w3.org/2000/svg" xmlns:xlink="http://www.w3.org/1999/xlink" x="0px" y="0px"
	 viewBox="0 0 341 110.1" style="enable-background:new 0 0 341 110.1;" xml:space="preserve">
<style type="text/css">
	.st0{clip-path:url(#SVGID_2_);fill:#D65988;}
</style>
<g>
	<defs>
		<rect id="SVGID_1_" width="540.9" height="110.1"/>
	</defs>
	<clipPath id="SVGID_2_">
		<use xlink:href="#SVGID_1_"  style="overflow:visible;"/>
	</clipPath>
	<path class="st0" d="M65,20.6c-11.3,0-19.4,11.3-23.5,28.8c-4.1,17.5,2.3,24,10,24c10.4,0,17.8-7.6,22-24
		C77.7,32.8,76.3,20.6,65,20.6 M65.8,48.7c-2.6,9.2-6.1,16.6-11.1,16.2c-4.7-0.3-6.1-5.5-3.4-16.2c3-12,7.3-19.9,12.6-19.9
		C69.2,28.8,68.4,39.4,65.8,48.7"/>
	<path class="st0" d="M39,0C26,0,9.3,17,3,45c-5.8,25.7-4.1,46.1,13.3,46.1c7.9,0,17.5-7.3,21.7-12.1c1.1-1.3-5.2-6.6-6.2-5.9
		c-3.9,4.4-9,9.2-15,9.2c-5.1,0-8.6-13.4-2.7-36.6c5.9-23.3,15-37,23.9-37c2.5,0,0.4,6.2-0.6,9.5c-0.6,1.7-1.7,4.9-3.4,9.5l-0.1,0.4
		c-0.1,0.4-0.1,0.8,0.1,1.2c0.4,1.5,1.7,2.6,3.3,2.8l2.1,0.3c1.9,0.4,3.8-0.4,4.8-2c1.5-3.7,2.6-7.7,3.3-11.6C47.8,16.4,50.4,0,39,0
		"/>
	<path class="st0" d="M118.3,21.3c-1.6,0-3.4,0.2-5.2,0.7c2.7-10.5,4.5-17.7,4.5-17.7c0.5-2.4-9-2.4-9.8,0.6
		c-0.2,0.5-2,7.8-4.5,18.2c-1.3-0.6-3-1-5.1-1c-9,0-18.1,8.9-21.9,25.1C72.4,63.7,76.5,73,87.1,73c1.1,0,2.7-0.7,4.5-1.7
		c-3.9,15.9-7,28.8-7.5,30.2c-0.5,1.7-2.2,8.6,0.9,8.6c2.6,0,6-2.5,7-5.7c0.5-1.8,4.2-16.1,8.6-33.3c1.5,0.8,3.1,1.3,5,1.3
		c9.4,0,17.4-8.3,21-23.9C130.7,31.5,126.8,21.3,118.3,21.3 M88,64.4c-3.3,0-4.6-3.9-1.7-16.6c3.5-15.1,6.3-17.8,11.1-17.8
		c1.5,0,2.9,0.3,4,0.8c-2.4,9.9-5.2,21.4-7.8,32.3C92.2,63.8,90,64.4,88,64.4 M116.6,47.6c-2.4,9.3-5.1,15.7-9.3,15.7
		c0,0-2.5,0.1-4.6-0.1c2.9-11.2,5.8-23,8.4-33.1c2.4-0.6,5.2-1.2,5.2-1.2C119.6,28.9,119.4,36.8,116.6,47.6"/>
	<path class="st0" d="M276.3,63c-0.8,3.6-1.4,6.6-1.5,7c-0.3,1.3-1.7,2.2-5.4,2.2c-4.7,0-5-1.6-4.8-3.1c1.4-8.9,7.7-35.2,9.9-41.7
		c1.4-4.4,3.7-6.2,8.2-6.2c3.4,0,4.1,0.9,4.1,2.8c0,1.9-2.1,5.3-2.8,6.6c-0.6,1.1-2,6.8-3.5,13.5c6.9-12,15.3-23.7,19.8-23.7
		c7.2,0,9.5,5.3,8.4,10.1c-0.8,3.5-1.5,6.7-2.3,8.8c-1.1,2.9-4.6,2.5-6.4,2c-1.7-0.5-3.9-3.2-3.4-4.7c0.8-2.4,1.8-4.5,1.8-4.6
		c0.4-1.2,1.2-2.9,0-2.6C296.2,30,280.7,52.7,276.3,63"/>
	<path class="st0" d="M313.8,72.9c6,1.1,13.7-3,22.1-11.2c0.7-0.6,1.9-2.4-0.8-4.8c-2-1.8-3.4-1.9-4.2-1.3
		c-10,8.3-15.5,11.4-16.4,9.3c-0.6-1.5-2.4-6.9,0.8-15.5c7-18.9,12.1-21.6,16.1-21.6c0.9,0,1.2,0.8,0.7,2.4c-1.1,1-4.4,6.8-5.2,8.5
		c-0.9,2.1,2.4,4.2,3.9,4.7c3.2,0.9,4.9,0.8,5.4,0c2.5-4.5,3.7-8.1,4.4-13.1c0.8-5.8-3.2-9.7-8.8-9.7c-7.3,0-18.6,4.3-26,26.9
		C301,61.8,303.9,71.1,313.8,72.9"/>
	<path class="st0" d="M182.3,9.2c4.3-0.7,21.1-2.3,50.5-4.9c1.5-0.4,1.4,2.1,1.2,4c-0.2,2.1-0.6,4.9-3,5c-3.9,0.1-44.1,3.6-49.9,4.2
		c-2.2,0.2-2.3-2-2.2-3.6C179.1,10.6,180.6,9.4,182.3,9.2"/>
	<path class="st0" d="M209.3,34.2c0.6-2.8,0.9-5.1,1.2-6.9c0.3-2.3-4.6-6.1-9.6-6.1c-3.7,0-8.9,6.6-13.8,15.3
		c0.8-3.1,1.4-5.3,1.7-5.9c0.7-1.3,2.8-4.7,2.8-6.6c0-1.8-0.7-2.8-4.1-2.8c-4.5,0-6.7,1.8-8.2,6.2c-1.1,3.3-3.2,11.6-5.2,20.2
		c-2.9,6-9.9,16.3-11.7,16.3c-1.4,0-1.6-2-0.9-4.7c2.2-7.8,9-32.4,9.4-34.4c0.5-2.1-2-3.7-4.6-3.7c-2.6,0-4.3,0-5.2,2.1
		c-1.9-1.4-4.2-2.1-6.6-2.1c-12.4,0-20.2,14-23.6,27.1c-4,15.5,0.2,24,7.8,24c3,0,7.6-4.8,13.8-14.3c-0.1,0.4-0.2,0.7-0.2,0.8
		c-2.4,10.5,0.6,13.5,8.6,13.5c2.8,0,6.4-4.2,9.8-9.2c-0.5,2.5-0.9,4.7-1.2,6.3c-0.2,1.5,0.1,3.1,4.8,3.1c3.7,0,5.1-0.9,5.4-2.2
		c0.1-0.4,0.7-3.2,1.3-6.4c7-21.3,15.1-33.3,18.2-33.3c2.5,0,0.2,8.5-9.2,39.2c-0.6,2,3,2.6,5.1,2.6c2.3,0,4,0.3,4.7-1.9
		c1.1-3.9,2.2-7.6,3.1-11c4.6-11.6,12.7-28.8,17.3-28.8c3.2,0-4.1,18.3-7.9,28.2c-3.2,8.3,1.2,13.5,7.3,13.5c0,0,7.1-1.5,12.9-6.5
		c1.8,4.2,5.2,7.4,11.2,7.4c11.8,0,18.8-12.6,22.6-27.4c1.7-6.4,2.5-25.4-10.3-25.4c-9.4,0-14.5,7.1-14.5,10c0,1.1,0.4,2,2.3,2.5
		c2.7,0.7,4-0.2,4.3-0.8c1.2-2.7,2.8-5.4,7-5.4c3.4,0,3.5,6.4,2.3,13.4c-3.2-0.2-6.4-0.3-9.6-0.2c-0.8-0.1-1.7,0-2.6,0.2
		c-1.6,0.6-2.6,2.2-2.5,4c-0.2,2.6,1.5,4.9,4.1,5.3c0.2,0,4.6-0.4,8.5-0.6c-2.1,6.7-6.3,16.8-11.5,16.8c-3.4,0-5.5-4.6-5.1-5.1
		c1.8-2,3-5.4,3.8-10c0.5-1.6-0.4-3.6-3.2-4.5c-4.2-1.3-6.2-0.1-6.7,1.3c-0.9,2.4-1.6,5.9-1.6,9.7c-1.4,1.3-3.1,2.3-4.9,3.3
		c-1.5,0.8-3.9,1.9-4.3,1.9c-0.3,0-0.4-0.6-0.1-1.8c1.2-4.9,6.7-19.3,9.4-32.6c0.6-2.8-5.1-6.7-8.4-6.7
		C218.4,21.2,213.6,26.9,209.3,34.2 M159,31c-0.7,2.6-1.5,6-2.3,9.3c-8.3,15.5-14.1,23.3-17.2,23.3c-1.6,0-1.2-4.2,1.3-13.4
		c3.3-11.9,7.4-21.7,13.5-21.7C155.9,28.6,157.7,29.8,159,31"/>
	<path class="st0" d="M332.4,79.2c-3.1,0-18.3-0.1-36.8-0.1c0.1-0.7,0.3-1.3,0.5-2c4-15,6.8-25.3,6.2-26.2c-0.6-0.9-3.7-3.7-4.6-3.9
		c-2.2-0.5-8.7,1-11.1,1.6c-1.2,0.4-1.1,8.2,0,8c3.1-0.8,8.7-2.6,7.4,0.3c-2.7,6.2-4.9,12.3-6,19.3c-0.2,1-0.3,1.9-0.4,2.9
		c-28.7-0.1-62.2-0.1-71.8,0.1c-17,0.5-98.7,2.2-103.2,2.8c-2.3,0.3-10.1,9.5-6.9,9.3c5.5-0.4,70.9-3.3,105.8-4.2
		c18.4-0.5,50.1-1,76-1.3c1.1,15.9,12.6,22.4,23.8,22.4c9,0,23.2-11.7,26.2-23.1C338.1,82.8,335,79.2,332.4,79.2 M312.5,100
		c-9.7,0.1-16.8-5-17.5-14.4c19.5-0.2,34.1-0.1,33.9,0.3C328.5,86.9,324.8,99.9,312.5,100"/>
	<path class="st0" d="M44.6,83.8c-5.4,1.4-5.6,3.1-6.6,7.4c-1.1,4.6,0.3,4.8,4.5,4.3c1.8-0.2,33.9-3.5,35.3-3.7
		c2.9-0.4,5.9-9,3.2-8.9C80.8,83,50.2,82.4,44.6,83.8"/>
	<path class="st0" d="M461.1,56.7l1.3,14.9h-4.7l-0.2-4.8c0-0.9-0.1-1.6-0.1-2c0-1.2,0.1-2.5,0.2-3.8l-2.1,9.2h-4.1l-2.1-9.2
		c0.1,1.1,0.2,2.4,0.2,3.7c0,0.4,0,1.2-0.1,2.1l-0.2,4.8h-4.7l1.3-14.9h5.8l1.8,9.3l1.8-9.3H461.1z M477.9,63.9L477.9,63.9
		c0,0.1,0,0.7-0.1,1.7h-9.1c0.1,1.1,0.5,1.9,1,2.3c0.5,0.4,1.2,0.6,2.2,0.6c0.6,0,1.1-0.1,1.7-0.3c0.6-0.2,1.2-0.5,1.8-1l2,2.7
		c-0.8,0.7-1.7,1.2-2.7,1.6s-2.1,0.6-3.3,0.6c-2.5,0-4.5-0.7-5.8-2.1c-1.3-1.4-2-3.3-2-5.8c0-1.5,0.3-2.9,0.8-4.1
		c0.6-1.2,1.4-2.2,2.4-2.9c1.1-0.7,2.4-1.1,3.9-1.1c2.2,0,3.9,0.7,5.2,2C477.2,59.6,477.9,61.5,477.9,63.9 M473,62.7v-0.2
		c0-1-0.2-1.8-0.5-2.3c-0.3-0.5-0.9-0.8-1.6-0.8c-0.7,0-1.2,0.2-1.6,0.7c-0.4,0.5-0.6,1.3-0.7,2.5H473z M488.2,57.8L488.2,57.8
		c1,0,2,0.3,2.8,0.8c0.9,0.5,1.5,1.3,2,2.4c0.5,1,0.7,2.3,0.7,3.8c0,1.5-0.3,2.8-0.9,3.9c-0.6,1.1-1.4,2-2.5,2.6
		c-1.1,0.6-2.4,0.9-3.8,0.9c-2.3,0-4.1-0.7-5.4-2.2c-1.3-1.5-1.9-3.7-1.9-6.7c0-2.2,0.2-3.9,0.6-5.3c0.4-1.4,1-2.5,1.9-3.4
		c0.9-0.9,2.2-1.6,3.8-2.1c1.1-0.3,2-0.6,2.6-0.9c0.6-0.3,1.4-0.7,2.4-1.2l1.8,3.1c-0.7,0.4-1.4,0.8-2.1,1.1c-0.7,0.3-1.6,0.6-2.8,1
		c-0.8,0.2-1.4,0.5-1.9,0.9c-0.5,0.3-0.8,0.8-1.1,1.4c-0.3,0.6-0.4,1.3-0.5,2.3c0.5-0.7,1.1-1.3,1.8-1.7
		C486.4,58,487.2,57.8,488.2,57.8 M486.4,68.5L486.4,68.5c0.7,0,1.3-0.3,1.6-0.8c0.4-0.6,0.6-1.5,0.6-2.8c0-1.3-0.2-2.2-0.5-2.7
		c-0.3-0.5-0.8-0.7-1.5-0.7c-0.5,0-0.9,0.1-1.4,0.4c-0.4,0.3-0.8,0.6-1.1,1.1v2C484.3,67.3,485,68.5,486.4,68.5 M509.4,63.9
		L509.4,63.9c0,0.1,0,0.7-0.1,1.7h-9.1c0.1,1.1,0.5,1.9,1,2.3c0.5,0.4,1.2,0.6,2.2,0.6c0.6,0,1.1-0.1,1.7-0.3c0.6-0.2,1.2-0.5,1.8-1
		l2,2.7c-0.8,0.7-1.7,1.2-2.7,1.6c-1,0.4-2.1,0.6-3.3,0.6c-2.5,0-4.5-0.7-5.8-2.1c-1.3-1.4-2-3.3-2-5.8c0-1.5,0.3-2.9,0.8-4.1
		c0.5-1.2,1.4-2.2,2.4-2.9c1.1-0.7,2.4-1.1,3.9-1.1c2.2,0,3.9,0.7,5.2,2C508.8,59.6,509.4,61.5,509.4,63.9 M504.5,62.7v-0.2
		c0-1-0.2-1.8-0.5-2.3c-0.3-0.5-0.8-0.8-1.6-0.8c-0.7,0-1.2,0.2-1.6,0.7c-0.4,0.5-0.6,1.3-0.7,2.5H504.5z M512.8,56.7h11.7v14.9h-5
		V60.3h-2.3l-0.2,2.7c-0.2,2.2-0.5,3.9-0.7,5c-0.3,1.1-0.8,2-1.5,2.6c-0.7,0.6-1.8,1.1-3.3,1.4l-1.2-3.6c0.6-0.3,1-0.6,1.3-0.9
		c0.3-0.3,0.4-0.8,0.6-1.4c0.1-0.7,0.2-1.8,0.3-3.4L512.8,56.7z M540.9,56.7v14.9h-4.7v-4.9c0-1.9,0.2-3.7,0.7-5.3l-4.6,10.2h-4.9
		V56.7h4.7v5c0,2-0.2,3.8-0.7,5.3l4.5-10.3H540.9z M404.6,68h1.6v8.4h-3.3l-0.5-4.8h-7.8l-0.5,4.8h-3.3V68h0.9
		c0.3-0.2,0.5-0.5,0.8-0.9c0.2-0.4,0.4-1,0.6-1.8c0.2-0.9,0.3-2.1,0.4-3.6l0.4-4.9h10.9V68z M400,68v-8.1h-2l-0.1,1.3
		c-0.2,2.1-0.5,3.7-0.9,4.7c-0.4,1-1,1.7-1.8,2.1H400z M408.9,56.7h11.7v14.9h-5V60.3h-2.3l-0.2,2.7c-0.2,2.2-0.5,3.9-0.7,5
		c-0.3,1.1-0.8,2-1.5,2.6c-0.7,0.6-1.8,1.1-3.3,1.4l-1.2-3.6c0.6-0.3,1-0.6,1.3-0.9c0.3-0.3,0.4-0.8,0.6-1.4
		c0.1-0.7,0.2-1.8,0.4-3.4L408.9,56.7z M430.3,56.7h5.9v14.9h-5v-5h-1.5l-2.6,5h-5.3l3.4-6.2c-0.7-0.4-1.2-0.9-1.6-1.5
		s-0.6-1.4-0.6-2.2c0-1.6,0.6-2.9,1.8-3.7C426.2,57.1,428,56.7,430.3,56.7 M430.2,63.8h1v-3.9h-1c-0.7,0-1.2,0.2-1.6,0.5
		c-0.4,0.3-0.5,0.8-0.5,1.4c0,0.6,0.2,1.1,0.5,1.5C429,63.6,429.5,63.8,430.2,63.8 M398.8,22.6L398.8,22.6c2.3,0,4.2,0.7,5.5,2.1
		c1.3,1.4,2,3.4,2,5.9c0,1.6-0.3,3-0.9,4.2c-0.6,1.2-1.5,2.1-2.6,2.8c-1.1,0.7-2.5,1-4,1c-2.3,0-4.2-0.7-5.5-2.1
		c-1.3-1.4-2-3.4-2-5.9c0-1.6,0.3-3,0.9-4.2c0.6-1.2,1.5-2.1,2.6-2.8C395.9,22.9,397.3,22.6,398.8,22.6 M398.8,26.2L398.8,26.2
		c-0.8,0-1.4,0.4-1.8,1c-0.4,0.7-0.6,1.8-0.6,3.3c0,1.5,0.2,2.7,0.6,3.3c0.4,0.7,1,1,1.8,1c0.8,0,1.4-0.3,1.8-1
		c0.4-0.7,0.6-1.8,0.6-3.3c0-1.5-0.2-2.6-0.6-3.3C400.2,26.6,399.6,26.2,398.8,26.2 M420.9,34.4h1.6v8.4h-3.3l-0.5-4.8h-7.8
		l-0.5,4.8H407v-8.4h0.9c0.3-0.2,0.6-0.5,0.8-0.9c0.2-0.4,0.4-1,0.6-1.8c0.2-0.9,0.3-2.1,0.4-3.6l0.4-4.9h10.9V34.4z M416.3,34.4
		v-8.1h-2l-0.1,1.3c-0.2,2.1-0.5,3.7-0.9,4.7c-0.4,1-1,1.7-1.8,2.1H416.3z M437.5,30.3L437.5,30.3c0,0.1,0,0.7-0.1,1.7h-9.1
		c0.1,1.1,0.5,1.9,1,2.3c0.5,0.4,1.2,0.6,2.2,0.6c0.6,0,1.1-0.1,1.7-0.3c0.6-0.2,1.2-0.5,1.8-1l2,2.7c-0.8,0.7-1.7,1.2-2.7,1.6
		c-1,0.4-2.1,0.6-3.3,0.6c-2.5,0-4.5-0.7-5.8-2.1c-1.3-1.4-2-3.3-2-5.8c0-1.5,0.3-2.9,0.8-4.1c0.6-1.2,1.4-2.2,2.4-2.9
		c1.1-0.7,2.4-1.1,3.9-1.1c2.2,0,3.9,0.7,5.2,2C436.8,26,437.5,27.9,437.5,30.3 M432.6,29.1v-0.2c0-1-0.2-1.8-0.5-2.3
		c-0.3-0.5-0.9-0.8-1.6-0.8c-0.7,0-1.2,0.2-1.6,0.7c-0.4,0.5-0.6,1.3-0.7,2.5H432.6z M454.7,23.1h4.6l-3.4,6.9l3.6,8h-5l-2.5-6.2
		h-1.1V38h-4.3v-6.2h-1.1L443,38h-5l3.6-8l-3.3-6.9h4.6l2.5,5.8h1.2v-5.8h4.3v5.8h1.2L454.7,23.1z M473.5,34.4h1.6v8.4h-3.3
		l-0.5-4.8h-7.8l-0.5,4.8h-3.3v-8.4h0.9c0.3-0.2,0.6-0.5,0.8-0.9c0.2-0.4,0.4-1,0.6-1.8c0.2-0.9,0.3-2.1,0.4-3.6l0.4-4.9h10.9V34.4z
		 M468.9,34.4v-8.1h-2l-0.1,1.3c-0.2,2.1-0.5,3.7-0.9,4.7c-0.4,1-1,1.7-1.8,2.1H468.9z M488.9,33.5L488.9,33.5
		c0,0.5,0.1,0.9,0.2,1.2c0.1,0.3,0.4,0.5,0.7,0.6l-1,3.2c-1-0.1-1.7-0.3-2.3-0.6c-0.6-0.3-1.1-0.8-1.5-1.5c-1,1.5-2.5,2.2-4.5,2.2
		c-1.5,0-2.7-0.4-3.5-1.3c-0.9-0.9-1.3-2-1.3-3.4c0-1.6,0.6-2.9,1.8-3.8c1.2-0.9,3-1.3,5.3-1.3h1.3v-0.5c0-0.8-0.2-1.3-0.5-1.6
		c-0.3-0.3-0.9-0.4-1.8-0.4c-0.5,0-1,0.1-1.8,0.2c-0.7,0.1-1.4,0.3-2.1,0.6l-1.1-3.2c0.9-0.4,1.9-0.7,2.9-0.9c1-0.2,2-0.3,2.9-0.3
		c2.2,0,3.9,0.4,4.9,1.3c1,0.9,1.5,2.2,1.5,4.1V33.5z M482.1,35L482.1,35c0.4,0,0.8-0.1,1.1-0.3c0.3-0.2,0.6-0.5,0.9-0.9v-2.4h-0.8
		c-0.9,0-1.6,0.2-2,0.5c-0.4,0.3-0.6,0.8-0.6,1.5c0,0.5,0.1,0.9,0.4,1.2C481.2,34.9,481.6,35,482.1,35"/>
</g>
</svg>
